<?xml version="1.0" encoding="utf-8"?>
<!-- Generator: Adobe Illustrator 24.0.3, SVG Export Plug-In . SVG Version: 6.00 Build 0)  -->
<svg version="1.1" id="Layer_1" xmlns="http://www.w3.org/2000/svg" xmlns:xlink="http://www.w3.org/1999/xlink" x="0px" y="0px"
	 viewBox="0 0 297.5 254.5" style="enable-background:new 0 0 297.5 254.5;" xml:space="preserve">
<style type="text/css">
	.st0{fill:#003E69;}
	.st1{fill:url(#SVGID_1_);}
	.st2{fill:url(#SVGID_2_);}
	.st3{clip-path:url(#SVGID_4_);}
	.st4{fill:url(#SVGID_5_);}
	.st5{fill:url(#SVGID_6_);}
	.st6{fill:url(#SVGID_7_);}
	.st7{fill:url(#SVGID_8_);}
	.st8{fill:url(#SVGID_9_);}
	.st9{fill:url(#SVGID_10_);}
	.st10{fill:url(#SVGID_11_);}
	.st11{fill:url(#SVGID_12_);}
	.st12{fill:url(#SVGID_13_);}
	.st13{fill:#FFFFFF;}
</style>
<path class="st0" d="M261.05,115.64c8.64,64.03-36.26,122.94-100.29,131.58c-64.03,8.64-122.94-36.26-131.58-100.29
	C20.54,82.91,65.44,24,129.47,15.36C193.5,6.71,252.41,51.61,261.05,115.64z"/>
<radialGradient id="SVGID_1_" cx="160.2959" cy="63.7866" r="41.335" gradientUnits="userSpaceOnUse">
	<stop  offset="0" style="stop-color:#486A8D"/>
	<stop  offset="1" style="stop-color:#003E69"/>
</radialGradient>
<circle class="st1" cx="160.3" cy="63.79" r="41.33"/>
<linearGradient id="SVGID_2_" gradientUnits="userSpaceOnUse" x1="141.9713" y1="134.9118" x2="141.9713" y2="247.2756" gradientTransform="matrix(1.0045 0.0819 -0.0822 1.0072 13.2198 -13.5726)">
	<stop  offset="0" style="stop-color:#003E69"/>
	<stop  offset="0.23" style="stop-color:#003B63"/>
	<stop  offset="0.6192" style="stop-color:#003055"/>
	<stop  offset="1" style="stop-color:#002143"/>
</linearGradient>
<path class="st2" d="M260.52,143.38c-5.23,62.35-61.32,108.78-125.27,103.71c-63.96-5.07-111.56-59.73-106.33-122.08"/>
<g>
	<defs>
		<path id="SVGID_3_" d="M261.39,134.4c-1.74,64.18-55.18,114.81-119.36,113.07c-64.18-1.74-114.81-55.18-113.07-119.36
			C30.7,63.92,84.14,13.3,148.32,15.04C212.51,16.77,263.13,70.21,261.39,134.4z"/>
	</defs>
	<clipPath id="SVGID_4_">
		<use xlink:href="#SVGID_3_"  style="overflow:visible;"/>
	</clipPath>
	<g class="st3">
		<g>
			
				<linearGradient id="SVGID_5_" gradientUnits="userSpaceOnUse" x1="130.641" y1="9.5239" x2="217.0513" y2="300.1354" gradientTransform="matrix(0.9585 0.285 -0.285 0.9585 40.1767 -34.9655)">
				<stop  offset="0" style="stop-color:#FFFFFF"/>
				<stop  offset="0.219" style="stop-color:#7F92AB"/>
				<stop  offset="0.3073" style="stop-color:#5A7696"/>
				<stop  offset="0.4886" style="stop-color:#014C74"/>
				<stop  offset="0.5712" style="stop-color:#003E69"/>
				<stop  offset="0.7658" style="stop-color:#002143"/>
			</linearGradient>
			<path class="st4" d="M169.95,93.43C169.95,93.43,169.95,93.43,169.95,93.43c-5.09,0-10.27-0.77-15.38-2.29
				c-21.11-6.28-34.65-23.62-30.17-38.66c3.28-11.05,15.46-18.19,31.02-18.19c5.09,0,10.26,0.77,15.38,2.29
				c21.11,6.28,34.65,23.62,30.18,38.66C197.68,86.29,185.51,93.43,169.95,93.43z M155.41,35.82c-14.86,0-26.46,6.71-29.55,17.09
				c-4.23,14.23,8.84,30.72,29.14,36.76c4.97,1.48,10,2.23,14.94,2.23c14.86,0,26.46-6.71,29.55-17.09
				c4.23-14.23-8.84-30.72-29.14-36.76C165.38,36.57,160.36,35.82,155.41,35.82z"/>
			
				<linearGradient id="SVGID_6_" gradientUnits="userSpaceOnUse" x1="117.0398" y1="13.5667" x2="203.4508" y2="304.1805" gradientTransform="matrix(0.9585 0.285 -0.285 0.9585 40.1767 -34.9655)">
				<stop  offset="0" style="stop-color:#FFFFFF"/>
				<stop  offset="0.219" style="stop-color:#7F92AB"/>
				<stop  offset="0.3073" style="stop-color:#5A7696"/>
				<stop  offset="0.4886" style="stop-color:#014C74"/>
				<stop  offset="0.5712" style="stop-color:#003E69"/>
				<stop  offset="0.7658" style="stop-color:#002143"/>
			</linearGradient>
			<path class="st5" d="M172.91,208.81c-16.66,0-33.95-2.54-51.06-7.63c-33.75-10.04-62.72-28.77-81.58-52.75
				C21.35,124.36,14.85,97.9,21.99,73.9c4.51-15.16,14.39-28.52,28.59-38.64l0.89,1.25c-13.91,9.92-23.6,23-28.01,37.83
				c-6.99,23.51-0.59,49.48,18.01,73.14c18.67,23.74,47.37,42.29,80.82,52.23c33.44,9.95,67.62,10.09,96.22,0.41
				c28.51-9.65,48.06-27.91,55.05-51.41c4.6-15.48,3.35-32.43-3.6-49l1.41-0.59c7.1,16.91,8.36,34.21,3.66,50.03
				c-7.13,24-27.03,42.62-56.03,52.43C204.75,206.39,189.13,208.81,172.91,208.81z M174.58,169.91c-13.37,0-27.45-1.99-41.59-6.19
				c-57.07-16.97-93.71-63.69-81.68-104.16C63.34,19.1,119.56-0.01,176.63,16.96c27.6,8.21,51.3,23.53,66.72,43.15
				c7.52,9.56,12.67,19.63,15.3,29.92c2.73,10.69,2.62,21.14-0.34,31.09C249.26,151.55,215.19,169.91,174.58,169.91z M134.99,12.29
				c-39.93,0-73.35,17.93-82.21,47.71c-11.79,39.65,24.39,85.52,80.65,102.25c14.01,4.16,27.97,6.14,41.2,6.14
				c39.93,0,73.35-17.93,82.21-47.71c5.7-19.16,0.48-40.33-14.69-59.63c-15.23-19.37-38.66-34.51-65.96-42.62
				C162.18,14.26,148.22,12.29,134.99,12.29z M173.61,130.61c-9.48,0-19.45-1.41-29.47-4.39c-40.45-12.03-66.42-45.15-57.89-73.84
				c4.15-13.95,15.7-24.76,32.54-30.45c16.75-5.66,36.74-5.57,56.28,0.24c40.45,12.03,66.42,45.15,57.89,73.84
				C226.55,117.6,202.4,130.61,173.61,130.61z M144.58,124.75c39.64,11.79,78.63-1.3,86.92-29.18
				c8.29-27.88-17.22-60.14-56.86-71.93c-19.25-5.72-38.9-5.81-55.36-0.26c-16.35,5.53-27.56,15.98-31.56,29.43
				C79.43,80.7,104.94,112.97,144.58,124.75z"/>
			
				<linearGradient id="SVGID_7_" gradientUnits="userSpaceOnUse" x1="113.852" y1="14.514" x2="200.2634" y2="305.1291" gradientTransform="matrix(0.9585 0.285 -0.285 0.9585 40.1767 -34.9655)">
				<stop  offset="0" style="stop-color:#FFFFFF"/>
				<stop  offset="0.219" style="stop-color:#7F92AB"/>
				<stop  offset="0.3073" style="stop-color:#5A7696"/>
				<stop  offset="0.4886" style="stop-color:#014C74"/>
				<stop  offset="0.5712" style="stop-color:#003E69"/>
				<stop  offset="0.7658" style="stop-color:#002143"/>
			</linearGradient>
			<path class="st6" d="M171.31,225.87c-17.48,0-35.9-2.6-54.39-8.1C42.64,195.68-5.13,135.1,10.44,82.73
				c2.98-10.03,8.12-19.25,15.28-27.4l1.15,1.01c-7.01,7.98-12.04,17.01-14.96,26.83C-3.42,134.73,43.88,194.45,117.36,216.3
				c18.37,5.46,36.66,8.05,54.01,8.05c52.04,0,95.55-23.26,107.04-61.93c2.92-9.81,3.63-20.12,2.12-30.65l1.52-0.22
				c1.54,10.74,0.81,21.27-2.17,31.3C268.18,202.18,224.04,225.87,171.31,225.87z"/>
			
				<linearGradient id="SVGID_8_" gradientUnits="userSpaceOnUse" x1="100.6898" y1="18.4281" x2="187.1012" y2="309.0434" gradientTransform="matrix(0.9585 0.285 -0.285 0.9585 40.1767 -34.9655)">
				<stop  offset="0" style="stop-color:#FFFFFF"/>
				<stop  offset="0.219" style="stop-color:#7F92AB"/>
				<stop  offset="0.3073" style="stop-color:#5A7696"/>
				<stop  offset="0.4886" style="stop-color:#014C74"/>
				<stop  offset="0.5712" style="stop-color:#003E69"/>
				<stop  offset="0.7658" style="stop-color:#002143"/>
			</linearGradient>
			<path class="st7" d="M161.56,275.19c-19.28,0-39.29-2.95-59.09-8.83c-80.39-23.9-132.09-89.45-115.24-146.12l1.47,0.44
				c-16.61,55.86,34.62,120.55,114.21,144.21c38.6,11.48,78.02,11.7,111,0.62c32.89-11.04,55.42-32,63.45-59.01l1.47,0.44
				c-8.18,27.5-31.06,48.82-64.43,60.02C198.05,272.45,180.16,275.19,161.56,275.19z"/>
			
				<linearGradient id="SVGID_9_" gradientUnits="userSpaceOnUse" x1="102.7593" y1="17.8127" x2="189.1707" y2="308.4279" gradientTransform="matrix(0.9585 0.285 -0.285 0.9585 40.1767 -34.9655)">
				<stop  offset="0" style="stop-color:#FFFFFF"/>
				<stop  offset="0.219" style="stop-color:#7F92AB"/>
				<stop  offset="0.3073" style="stop-color:#5A7696"/>
				<stop  offset="0.4886" style="stop-color:#014C74"/>
				<stop  offset="0.5712" style="stop-color:#003E69"/>
				<stop  offset="0.7658" style="stop-color:#002143"/>
			</linearGradient>
			<path class="st8" d="M152.76,298.19c-18.51,0-37.92-2.78-57.22-8.52C34.49,271.52-11.23,228-18.24,181.37l1.52-0.23
				c6.92,46.05,52.21,89.08,112.7,107.07c60.49,17.98,121.93,6.69,152.89-28.1l1.14,1.02C228.57,285.21,192.77,298.19,152.76,298.19
				z M168.49,244.66c-18.33,0-37.65-2.73-57.04-8.5C33.55,213-16.54,149.48-0.21,94.57c3.13-10.51,8.52-20.18,16.02-28.73l1.15,1.01
				C9.6,75.24,4.32,84.71,1.26,95.01c-16.08,54.1,33.54,116.76,110.63,139.68c19.27,5.73,38.47,8.44,56.66,8.44
				c54.6,0,100.25-24.41,112.31-64.98c3.06-10.3,3.81-21.12,2.23-32.16l1.52-0.22c1.61,11.26,0.84,22.3-2.28,32.81
				C270.07,219.82,223.77,244.65,168.49,244.66z"/>
			
				<linearGradient id="SVGID_10_" gradientUnits="userSpaceOnUse" x1="78.0669" y1="25.1548" x2="164.478" y2="315.7686" gradientTransform="matrix(0.9585 0.285 -0.285 0.9585 40.1767 -34.9655)">
				<stop  offset="0" style="stop-color:#FFFFFF"/>
				<stop  offset="0.219" style="stop-color:#7F92AB"/>
				<stop  offset="0.3073" style="stop-color:#5A7696"/>
				<stop  offset="0.4886" style="stop-color:#014C74"/>
				<stop  offset="0.5712" style="stop-color:#003E69"/>
				<stop  offset="0.7658" style="stop-color:#002143"/>
			</linearGradient>
			<path class="st9" d="M146.99,306.9c-17.61,0-36.01-2.65-54.18-8.05C45.49,284.78,6.59,253.76-8.72,217.89l1.41-0.6
				c15.14,35.46,53.67,66.15,100.56,80.09c48.29,14.36,98.2,9.11,130.25-13.7l0.89,1.25C204.05,299.4,176.63,306.9,146.99,306.9z"/>
			
				<linearGradient id="SVGID_11_" gradientUnits="userSpaceOnUse" x1="72.002" y1="27.0189" x2="158.4132" y2="317.6334" gradientTransform="matrix(0.9585 0.285 -0.285 0.9585 40.1767 -34.9655)">
				<stop  offset="0" style="stop-color:#FFFFFF"/>
				<stop  offset="0.219" style="stop-color:#7F92AB"/>
				<stop  offset="0.3073" style="stop-color:#5A7696"/>
				<stop  offset="0.4886" style="stop-color:#014C74"/>
				<stop  offset="0.5712" style="stop-color:#003E69"/>
				<stop  offset="0.7658" style="stop-color:#002143"/>
			</linearGradient>
			<path class="st10" d="M142.45,311.55c-16.43,0-33.53-2.46-50.42-7.41l-1.25,4.22l-1.47-0.44l1.25-4.22
				c-37.01-11.17-68.45-33.07-86.34-60.16l1.28-0.84c17.7,26.8,48.83,48.47,85.5,59.54l63.03-212l1.47,0.44l-63.03,212
				c37.5,10.99,75.98,9.61,105.68-3.81l0.63,1.4C182.15,307.77,162.81,311.55,142.45,311.55z M15.44,68.96l-1.28-0.85
				C27.11,48.6,72.43,27.94,128.54,45.56l-0.46,1.46c-31.32-9.84-56.7-6.82-72.46-2.55C37.63,49.34,22.23,58.72,15.44,68.96z
				 M133.68,41.67C92.15,19.8,64.4,29.03,51.56,36.48l-0.77-1.33c13.12-7.61,41.42-17.05,83.61,5.16L133.68,41.67z M140.58,37.96
				c-18.13-17.87-41.25-22.58-54.73-18l-0.49-1.45c13.92-4.73,37.73,0.06,56.3,18.36L140.58,37.96z M171.3,37.53l-1.47-0.44
				l5.79-19.49l1.47,0.44L171.3,37.53z M149.95,35.71c-7.87-13.24-20.16-22.37-30.57-22.72l0.05-1.53
				c11.08,0.38,23.58,9.59,31.83,23.47L149.95,35.71z M159.66,35.53c-2.13-11.56-4.69-19.79-10.24-22.41l0.65-1.39
				c6.14,2.9,8.87,11.5,11.09,23.52L159.66,35.53z"/>
			
				<linearGradient id="SVGID_12_" gradientUnits="userSpaceOnUse" x1="102.362" y1="17.9316" x2="188.773" y2="308.5453" gradientTransform="matrix(0.9585 0.285 -0.285 0.9585 40.1767 -34.9655)">
				<stop  offset="0" style="stop-color:#FFFFFF"/>
				<stop  offset="0.219" style="stop-color:#7F92AB"/>
				<stop  offset="0.3073" style="stop-color:#5A7696"/>
				<stop  offset="0.4886" style="stop-color:#014C74"/>
				<stop  offset="0.5712" style="stop-color:#003E69"/>
				<stop  offset="0.7658" style="stop-color:#002143"/>
			</linearGradient>
			<path class="st11" d="M133.28,315.34c0,0-0.01,0-0.01,0c-14.66,0-29.29-2.14-43.47-6.36c-39-11.59-71.14-37.68-90.52-73.46
				s-23.66-76.96-12.07-115.95c9.54-32.1,28.81-59.51,55.72-79.28c26.04-19.13,58.08-29.66,90.22-29.66
				c14.66,0,29.29,2.14,43.47,6.36c80.5,23.94,126.52,108.91,102.59,189.41c-9.54,32.1-28.81,59.51-55.72,79.28
				C197.45,304.81,165.41,315.34,133.28,315.34z M133.15,12.16c-31.81,0-63.53,10.43-89.31,29.37C17.2,61.1-1.87,88.24-11.32,120.01
				c-11.48,38.61-7.24,79.37,11.95,114.79c19.18,35.42,51.01,61.24,89.61,72.72c14.04,4.17,28.52,6.29,43.04,6.29c0,0,0.01,0,0.01,0
				c31.81,0,63.52-10.43,89.3-29.37c26.64-19.57,45.71-46.71,55.16-78.48c23.7-79.69-21.86-163.81-101.55-187.51
				C162.14,14.28,147.66,12.16,133.15,12.16z"/>
			
				<linearGradient id="SVGID_13_" gradientUnits="userSpaceOnUse" x1="102.1876" y1="17.9838" x2="188.5986" y2="308.5974" gradientTransform="matrix(0.9585 0.285 -0.285 0.9585 40.1767 -34.9655)">
				<stop  offset="0" style="stop-color:#FFFFFF"/>
				<stop  offset="0.219" style="stop-color:#7F92AB"/>
				<stop  offset="0.3073" style="stop-color:#5A7696"/>
				<stop  offset="0.4886" style="stop-color:#014C74"/>
				<stop  offset="0.5712" style="stop-color:#003E69"/>
				<stop  offset="0.7658" style="stop-color:#002143"/>
			</linearGradient>
			<path class="st12" d="M118.54,314.49l-0.21-1.52c11.42-1.6,23.58-33.92,33.36-88.67c8.24-46.13,13.3-100.39,12.3-131.95
				l1.53-0.05c1,31.65-4.06,86.05-12.32,132.27C147.38,257.16,135.13,312.17,118.54,314.49z M150.82,314.11l-0.36-1.49
				c6.89-1.67,13.18-7.23,18.69-16.52c19.76-33.29,28.11-115.93,4.68-203.5l1.48-0.4c23.54,87.98,15.08,171.12-4.84,204.68
				C164.74,306.54,158.12,312.34,150.82,314.11z M186.2,305.51l-0.65-1.39c12.09-5.62,21.47-17.81,27.1-35.24
				c7.06-21.83,8.17-51.31,3.12-83.01c-5.29-33.17-16.63-65.98-32.81-94.87l1.34-0.75c16.26,29.05,27.67,62.03,32.98,95.38
				c5.09,31.93,3.96,61.67-3.17,83.72C208.34,287.21,198.69,299.71,186.2,305.51z M62.74,297.9c-12.62-11.01,7.18-63.77,20.1-94.24
				c18.34-43.23,43.81-91.55,61.95-117.51l1.26,0.88c-18.08,25.89-43.49,74.1-61.79,117.23c-21.72,51.2-29.2,84.91-20.51,92.49
				L62.74,297.9z M225.84,283.76l-1.05-1.12c18.07-16.99,25.59-47.12,20.63-82.64c-5.37-38.49-24.8-78.48-54.7-112.61l1.15-1.01
				c30.1,34.35,49.65,74.62,55.07,113.41C251.97,235.81,244.28,266.42,225.84,283.76z M35.91,279.95
				c-5.15-5.48-7.52-13.94-7.05-25.16c1.65-38.99,39.99-113.25,107.77-174.07l1.02,1.14C70.19,142.4,32.04,216.17,30.4,254.85
				c-0.46,10.79,1.77,18.88,6.63,24.05L35.91,279.95z M10.98,253.41c-7.29-11.68-8.54-27.43-3.62-45.54
				c6.08-22.37,21.38-47.89,43.09-71.85c22.67-25.03,50.24-46.42,79.74-61.86l0.71,1.36c-29.34,15.36-56.76,36.64-79.31,61.53
				c-21.55,23.79-36.73,49.09-42.75,71.23c-4.8,17.69-3.61,33.01,3.45,44.33L10.98,253.41z M256.93,251.52l-1.26-0.87
				c13.72-19.76,16.21-48.48,6.84-78.8c-10.24-33.12-33.76-65.03-66.21-89.83l0.93-1.22c32.7,25,56.41,57.17,66.74,90.6
				C273.48,202.16,270.92,231.37,256.93,251.52z M-10.34,213.53c-5.97-24.6,4.31-54.43,28.21-81.86
				c25.72-29.52,64.11-52.57,108.08-64.9l0.41,1.48C82.67,80.5,44.55,103.38,19.02,132.68c-23.56,27.04-33.72,56.38-27.87,80.49
				L-10.34,213.53z M280.32,201.84l-1.49-0.38c12.56-49.28-30.27-102.54-78.92-125.55l0.66-1.39
				C249.79,97.81,293.07,151.8,280.32,201.84z M-18.76,169.55c-0.71-24.52,13.1-50.38,37.88-70.96
				c26.92-22.35,64.35-36.35,105.4-39.41l0.11,1.53C83.91,63.75,46.78,77.62,20.1,99.77c-24.42,20.27-38.03,45.69-37.33,69.74
				L-18.76,169.55z M283.25,148.58c-0.1-12.29-7.87-28.56-20.28-42.46c-10.88-12.19-30.47-28.58-62.08-37.46l0.41-1.48
				c56.62,15.9,83.29,57.96,83.48,81.38L283.25,148.58z M-9.76,115.65l-1.45-0.5C5.45,66.28,71.21,44.71,125.15,52.1l-0.21,1.52
				C71.62,46.32,6.65,67.52-9.76,115.65z M270.74,101.65c-6.68-13.26-24.88-36.15-71.62-40.52l0.14-1.53
				c47.48,4.44,66.02,27.82,72.85,41.36L270.74,101.65z M251.04,69.08c-8.78-11.2-30.73-19.89-55.67-14.83l-0.3-1.5
				c25.56-5.18,48.11,3.82,57.18,15.38L251.04,69.08z M188.76,47.25l-0.68-1.38c14.5-7.12,29.99-8.01,39.48-2.27l-0.79,1.31
				C217.86,39.52,202.58,40.46,188.76,47.25z M180.71,41.79l-1.11-1.06c8.43-8.85,15.42-14.56,22.14-13.63l-0.21,1.52
				C195.46,27.78,188.82,33.28,180.71,41.79z"/>
		</g>
	</g>
</g>
<g>
	<path class="st13" d="M48.07,121.04l0.19,22.32c0.05,5.36,0.25,9.19,0.6,11.5c0.35,2.31,0.93,4.06,1.73,5.25h-8.09
		c0.9-1.15,1.57-3.81,1.98-7.99c0.42-4.18,0.62-10.27,0.62-18.28c0-7.09-0.19-11.7-0.57-13.83c-0.38-2.13-1.06-3.54-2.04-4.24h7.26
		c1.29,0,2.73,1.22,4.34,3.65c0.4,0.63,0.72,1.13,0.97,1.49c1.31,1.91,3.33,4.94,6.05,9.08c6.28,9.61,11.34,17.03,15.18,22.25
		l0.07-19.38c0-6.21-0.14-10.42-0.4-12.61c-0.27-2.2-0.73-3.69-1.38-4.48h6.58c-0.67,0.63-1.13,2.31-1.39,5.05
		c-0.26,2.74-0.39,8.27-0.39,16.6v8.85v14.05h-4.51c-1.54-2.43-5.36-8.06-11.47-16.88C57.29,134.61,52.18,127.14,48.07,121.04z"/>
</g>
<g>
	<path class="st13" d="M95.94,158.37v-7.6c1.39,2.3,3.14,4.06,5.26,5.27c2.12,1.22,4.53,1.83,7.24,1.83c2.68,0,4.85-0.79,6.53-2.37
		c1.67-1.58,2.51-3.6,2.51-6.07c0-1.92-0.57-3.61-1.69-5.08c-1.13-1.47-3.04-2.92-5.72-4.37c-0.2-0.11-0.5-0.28-0.89-0.51
		c-7.81-4.26-11.71-8.59-11.71-12.99c0-3.41,1.33-6.18,4-8.34c2.67-2.15,6.13-3.23,10.4-3.23c1.39,0,2.9,0.04,4.54,0.13
		c1.63,0.09,2.58,0.13,2.83,0.13c0.1,0,0.29,0.01,0.58,0.03c0.29,0.02,0.53,0.03,0.73,0.03h1.75v7.26c-0.87-1.5-2.09-2.64-3.67-3.43
		c-1.58-0.79-3.41-1.18-5.49-1.18c-2.88,0-5.16,0.63-6.83,1.9c-1.67,1.27-2.51,2.98-2.51,5.13c0,3.2,3.05,6.41,9.16,9.65
		c0.22,0.09,0.37,0.16,0.45,0.2c3.84,2.03,6.58,4.04,8.22,6.02c1.64,1.99,2.46,4.23,2.46,6.73c0,3.72-1.53,6.89-4.57,9.52
		c-3.05,2.63-6.81,3.94-11.27,3.94c-1.79,0-3.68-0.21-5.69-0.64C100.52,159.92,98.32,159.27,95.94,158.37z"/>
</g>
<g>
	<path class="st13" d="M140,160.11c0.6-0.67,1.02-2.23,1.27-4.66c0.25-2.43,0.38-7.63,0.38-15.6v-2.84c0-8.69-0.13-14.23-0.38-16.63
		c-0.25-2.4-0.67-3.93-1.27-4.61h9.19c-0.59,0.65-1.02,2.15-1.27,4.49c-0.25,2.34-0.38,7.33-0.38,14.96v2.7v2.67
		c0,7.66,0.12,12.66,0.38,15.01c0.25,2.35,0.68,3.86,1.27,4.51H140z"/>
</g>
<g>
	<path class="st13" d="M176.49,118.08c1.13-0.13,2.3-0.19,3.54-0.19c5.96,0,10.56,1.76,13.81,5.27c3.24,3.51,4.86,8.51,4.86,14.99
		c0,6.19-1.54,10.98-4.62,14.38c-3.08,3.4-7.44,5.1-13.08,5.1c-3.02,0-5.07-0.2-6.14-0.59c-1.08-0.39-1.7-1.17-1.87-2.32
		c-0.1-0.79-0.18-2.19-0.24-4.21c-0.06-2.02-0.09-4.51-0.09-7.49v-10.11c0-3.92,0.04-7.02,0.13-9.28c0.09-2.27,0.23-3.93,0.43-4.99
		C174.26,118.39,175.36,118.2,176.49,118.08z M169.7,160.11c0.99,0,2.81,0.06,5.46,0.19c2.65,0.12,4.8,0.19,6.43,0.19
		c7.46,0,13.36-2.21,17.71-6.61c4.35-4.41,6.52-10.41,6.52-17.99c0-6.52-1.82-11.65-5.45-15.38c-3.63-3.73-8.62-5.6-14.96-5.6
		c-1.44,0-3.85,0.15-7.25,0.44c-3.39,0.29-6.11,0.44-8.14,0.44h-4.92c0.59,0.68,1.02,2.22,1.27,4.62c0.25,2.4,0.38,7.96,0.38,16.67
		v2.84c0,7.95-0.12,13.14-0.38,15.56c-0.25,2.42-0.67,3.97-1.27,4.65H169.7z"/>
</g>
<g>
	<path class="st13" d="M251.54,115.7l-0.41,9.54c-1-2.44-2.38-4.27-4.17-5.5c-1.79-1.23-3.96-1.85-6.51-1.85
		c-4.96,0-8.85,1.64-11.68,4.92c-2.83,3.28-4.24,7.8-4.24,13.57c0,5.95,1.55,10.68,4.65,14.21c3.1,3.53,7.24,5.29,12.42,5.29
		c2.45,0,4.74-0.47,6.87-1.42c2.13-0.95,3.98-2.3,5.54-4.06c-0.82,3.22-2.64,5.78-5.47,7.71c-2.83,1.92-6.22,2.88-10.19,2.88
		c-6.05,0-11.01-2.11-14.88-6.33c-3.87-4.22-5.8-9.64-5.8-16.27c0-7.33,2.08-13.08,6.25-17.24c4.17-4.16,9.93-6.24,17.27-6.24
		c1.17,0,2.89,0.13,5.17,0.4C248.65,115.57,250.38,115.7,251.54,115.7z"/>
</g>
<path class="st13" d="M142.55,201.55l-0.31,2.99l2.43-1.76l2.43,1.76l-0.31-2.99l2.74-1.23l-2.74-1.23l0.31-2.99l-2.43,1.76
	l-2.43-1.76l0.31,2.99l-2.74,1.23L142.55,201.55z M160.9,207.57l4.21,2.43l-1.84,3.19l-4.21-2.43l0.76,2.86l-3.56,0.95l-1.73-6.43
	l-3.38-1.95l1.93,8.69l-6.57-6.03v3.92l4.7,4.7l-2.6,2.61l-2.1-2.09v4.86h-3.69v-4.86l-2.1,2.09l-2.61-2.61l4.7-4.7v-3.91
	l-6.56,6.01l1.94-8.7l-3.4,1.96l-1.73,6.43l-3.56-0.95l0.76-2.86l-4.21,2.43l-1.84-3.19l4.21-2.43l-2.86-0.77l0.95-3.56l6.43,1.72
	l3.38-1.95l-8.49-2.67l8.5-2.68l-3.4-1.96l-6.43,1.72l-0.95-3.56l2.86-0.77l-4.21-2.43l1.84-3.19l4.21,2.43l-0.76-2.86l3.56-0.96
	l1.73,6.43l3.38,1.95l-1.93-8.69l6.57,6.03v-3.92l-4.7-4.7l2.61-2.61l2.1,2.1v-4.86h3.69v4.86l2.1-2.1l2.6,2.61l-4.7,4.7v3.91
	l6.56-6.02l-1.93,8.71l3.39-1.96l1.73-6.43l3.56,0.96l-0.76,2.86l4.21-2.43l1.84,3.19l-4.21,2.43l2.87,0.77l-0.96,3.56l-6.42-1.72
	l-3.38,1.95l8.48,2.68l-8.51,2.68l3.4,1.96l6.42-1.72l0.96,3.56L160.9,207.57z"/>
</svg>
